<?xml version="1.0" encoding="utf-8"?>
<!-- Generator: Adobe Illustrator 25.0.0, SVG Export Plug-In . SVG Version: 6.00 Build 0)  -->
<svg version="1.1" id="Layer_1" xmlns="http://www.w3.org/2000/svg" xmlns:xlink="http://www.w3.org/1999/xlink" x="0px" y="0px"
	 viewBox="0 0 100 100" style="enable-background:new 0 0 100 100;" xml:space="preserve">
<style type="text/css">
	.st0{fill:#D2A84E;}
	.st1{fill:#3BB300;}
</style>
<g>
	<path class="st0" d="M79.7,5.3c-6.2,0-11.4,5.2-11.4,11.4s5.2,11.4,11.4,11.4S91.1,23,91.1,16.7S85.9,5.3,79.7,5.3z M79.7,25
		c-4.5,0-8.3-3.8-8.3-8.3s3.8-8.3,8.3-8.3s8.3,3.8,8.3,8.3S84.2,25,79.7,25z"/>
	<path class="st0" d="M79.7,14.4h1.9c0.9,0,1.6-0.6,1.6-1.6c0-0.9-0.6-1.6-1.6-1.6h-0.3v-0.3c0-0.9-0.6-1.6-1.6-1.6
		s-1.6,0.6-1.6,1.6v0.8c-1.1,0.6-1.9,1.7-1.9,3c0,1.9,1.6,3.4,3.4,3.4c0.2,0,0.3,0.2,0.3,0.3c0,0.2-0.2,0.3-0.3,0.3h-1.9
		c-0.9,0-1.6,0.6-1.6,1.6c0,0.9,0.6,1.6,1.6,1.6h0.3v0.5c0,0.9,0.6,1.6,1.6,1.6s1.6-0.6,1.6-1.6v-0.9c1.1-0.6,1.9-1.7,1.9-3
		c0-1.9-1.6-3.4-3.4-3.4c-0.2,0-0.3-0.2-0.3-0.3S79.5,14.4,79.7,14.4z"/>
	<path class="st0" d="M20.3,71.9c-6.2,0-11.4,5.2-11.4,11.4s5.2,11.4,11.4,11.4s11.4-5.2,11.4-11.4S26.6,71.9,20.3,71.9z M20.3,91.6
		c-4.5,0-8.3-3.8-8.3-8.3c0-4.5,3.8-8.3,8.3-8.3s8.3,3.8,8.3,8.3C28.6,87.8,24.8,91.6,20.3,91.6z"/>
	<path class="st0" d="M20.3,81.1h2c0.9,0,1.6-0.6,1.6-1.6c0-0.9-0.6-1.6-1.6-1.6h-0.5v-0.3c0-0.9-0.6-1.6-1.6-1.6s-1.6,0.6-1.6,1.6
		v0.8c-1.1,0.6-1.9,1.7-1.9,3c0,1.9,1.6,3.4,3.4,3.4c0.2,0,0.3,0.2,0.3,0.3c0,0.2-0.2,0.3-0.3,0.3h-1.9c-0.9,0-1.6,0.6-1.6,1.6
		s0.6,1.6,1.6,1.6h0.3v0.5c0,0.9,0.6,1.6,1.6,1.6s1.6-0.6,1.6-1.6v-0.9c1.1-0.6,1.9-1.7,1.9-3c0-1.9-1.6-3.4-3.4-3.4
		c-0.2,0-0.3-0.2-0.3-0.3S20.2,81.1,20.3,81.1z"/>
	<path class="st1" d="M72.2,31.7C72.2,31.6,72.2,31.6,72.2,31.7c-0.2-0.2-0.2-0.3-0.3-0.5l0,0l0,0c-0.2-0.2-0.3-0.3-0.5-0.3h-0.2
		c-0.2,0-0.3-0.2-0.3-0.2h-0.2c-0.2,0-0.3,0-0.5,0c0,0,0,0-0.2,0l0,0l0,0l-8.9,2.8c-0.8,0.3-1.2,1.1-1.1,2c0.3,0.8,1.1,1.2,2,1.1
		l5.2-1.6l-13,23L45,42.5c-0.3-0.5-0.8-0.8-1.4-0.8c-0.6,0-1.1,0.3-1.4,0.8L27.8,67.2c-0.5,0.8-0.2,1.7,0.6,2.2
		c0.3,0.2,0.5,0.2,0.8,0.2c0.5,0,1.1-0.3,1.4-0.8l13.1-22.8l9.4,15.6c0.3,0.5,0.8,0.8,1.4,0.8c0.6,0,1.1-0.3,1.4-0.8l14.4-25.3
		l1.2,4.8c0.2,0.8,0.8,1.2,1.6,1.2c0.2,0,0.3,0,0.3,0c0.8-0.2,1.4-1.1,1.1-1.9L72.2,31.7z"/>
</g>
</svg>
